P3
7 7
255
0 170 255 0 170 255 0 170 255 0 170 255 0 170 255 0 170 255 0 170 255
0 170 255 0 170 255 0 170 255 0 170 255 0 170 255 0 170 255 0 170 255
0 170 255 0 170 255 0 170 255 0 170 255 0 170 255 0 170 255 0 170 255
0 170 255 0 170 255 0 170 255 0 170 255 0 170 255 0 170 255 0 0 0
0 170 255 0 170 255 0 170 255 0 170 255 0 170 255 0 170 255 0 170 255
0 170 255 0 170 255 0 170 255 0 170 255 0 170 255 0 170 255 0 170 255
0 170 255 0 170 255 0 170 255 0 170 255 0 170 255 0 0 0 0 0 0